<svg viewBox="0 0 140 140" xmlns="http://www.w3.org/2000/svg">
  <defs>
    <filter id="blur"><feGaussianBlur stdDeviation="2.5"/></filter>
    <radialGradient id="vig" cx="50%" cy="40%" r="70%">
      <stop offset="0%" stop-color="#0a0a0f"/>
      <stop offset="100%" stop-color="#000"/>
    </radialGradient>
  </defs>
  <rect width="140" height="140" rx="22" fill="url(#vig)"/>
  <g><circle cx="8" cy="8" r="1.6" fill="#15151a"/><circle cx="16" cy="8" r="1.6" fill="#1a1a20"/><circle cx="24" cy="8" r="1.6" fill="#15151a"/><circle cx="32" cy="8" r="1.6" fill="#1a1a20"/><circle cx="40" cy="8" r="1.6" fill="#15151a"/><circle cx="48" cy="8" r="1.6" fill="#1a1a20"/><circle cx="56" cy="8" r="1.6" fill="#15151a"/><circle cx="64" cy="8" r="1.6" fill="#1a1a20"/><circle cx="72" cy="8" r="1.6" fill="#15151a"/><circle cx="80" cy="8" r="1.6" fill="#1a1a20"/><circle cx="88" cy="8" r="1.6" fill="#15151a"/><circle cx="96" cy="8" r="1.6" fill="#1a1a20"/><circle cx="104" cy="8" r="1.6" fill="#15151a"/><circle cx="112" cy="8" r="1.6" fill="#1a1a20"/><circle cx="120" cy="8" r="1.6" fill="#15151a"/><circle cx="128" cy="8" r="1.6" fill="#1a1a20"/><circle cx="136" cy="8" r="1.6" fill="#15151a"/><circle cx="8" cy="16" r="1.6" fill="#1a1a20"/><circle cx="16" cy="16" r="1.6" fill="#15151a"/><circle cx="24" cy="16" r="1.6" fill="#1a1a20"/><circle cx="32" cy="16" r="1.6" fill="#15151a"/><circle cx="40" cy="16" r="1.6" fill="#1a1a20"/><circle cx="48" cy="16" r="1.6" fill="#15151a"/><circle cx="56" cy="16" r="1.6" fill="#1a1a20"/><circle cx="64" cy="16" r="1.6" fill="#15151a"/><circle cx="72" cy="16" r="1.6" fill="#1a1a20"/><circle cx="80" cy="16" r="1.6" fill="#15151a"/><circle cx="88" cy="16" r="1.6" fill="#1a1a20"/><circle cx="96" cy="16" r="1.6" fill="#15151a"/><circle cx="104" cy="16" r="1.6" fill="#1a1a20"/><circle cx="112" cy="16" r="1.6" fill="#15151a"/><circle cx="120" cy="16" r="1.6" fill="#1a1a20"/><circle cx="128" cy="16" r="1.6" fill="#15151a"/><circle cx="136" cy="16" r="1.6" fill="#1a1a20"/><circle cx="8" cy="24" r="1.6" fill="#15151a"/><circle cx="16" cy="24" r="1.6" fill="#1a1a20"/><circle cx="64" cy="24" r="1.6" fill="#1a1a20"/><circle cx="96" cy="24" r="1.6" fill="#1a1a20"/><circle cx="128" cy="24" r="1.6" fill="#1a1a20"/><circle cx="136" cy="24" r="1.6" fill="#15151a"/><circle cx="8" cy="32" r="1.6" fill="#1a1a20"/><circle cx="16" cy="32" r="1.6" fill="#15151a"/><circle cx="64" cy="32" r="1.6" fill="#15151a"/><circle cx="96" cy="32" r="1.6" fill="#15151a"/><circle cx="128" cy="32" r="1.6" fill="#15151a"/><circle cx="136" cy="32" r="1.6" fill="#1a1a20"/><circle cx="8" cy="40" r="1.6" fill="#15151a"/><circle cx="16" cy="40" r="1.6" fill="#1a1a20"/><circle cx="64" cy="40" r="1.6" fill="#1a1a20"/><circle cx="96" cy="40" r="1.6" fill="#1a1a20"/><circle cx="128" cy="40" r="1.6" fill="#1a1a20"/><circle cx="136" cy="40" r="1.6" fill="#15151a"/><circle cx="8" cy="48" r="1.6" fill="#1a1a20"/><circle cx="16" cy="48" r="1.6" fill="#15151a"/><circle cx="24" cy="48" r="1.6" fill="#1a1a20"/><circle cx="32" cy="48" r="1.6" fill="#15151a"/><circle cx="40" cy="48" r="1.6" fill="#1a1a20"/><circle cx="48" cy="48" r="1.6" fill="#15151a"/><circle cx="56" cy="48" r="1.6" fill="#1a1a20"/><circle cx="64" cy="48" r="1.6" fill="#15151a"/><circle cx="72" cy="48" r="1.6" fill="#1a1a20"/><circle cx="80" cy="48" r="1.6" fill="#15151a"/><circle cx="88" cy="48" r="1.6" fill="#1a1a20"/><circle cx="96" cy="48" r="1.6" fill="#15151a"/><circle cx="104" cy="48" r="1.6" fill="#1a1a20"/><circle cx="112" cy="48" r="1.6" fill="#15151a"/><circle cx="120" cy="48" r="1.6" fill="#1a1a20"/><circle cx="128" cy="48" r="1.6" fill="#15151a"/><circle cx="136" cy="48" r="1.6" fill="#1a1a20"/><circle cx="8" cy="56" r="1.6" fill="#15151a"/><circle cx="16" cy="56" r="1.6" fill="#1a1a20"/><circle cx="48" cy="56" r="1.6" fill="#1a1a20"/><circle cx="96" cy="56" r="1.6" fill="#1a1a20"/><circle cx="128" cy="56" r="1.6" fill="#1a1a20"/><circle cx="136" cy="56" r="1.6" fill="#15151a"/><circle cx="8" cy="64" r="1.6" fill="#1a1a20"/><circle cx="16" cy="64" r="1.6" fill="#15151a"/><circle cx="48" cy="64" r="1.6" fill="#15151a"/><circle cx="96" cy="64" r="1.6" fill="#15151a"/><circle cx="128" cy="64" r="1.6" fill="#15151a"/><circle cx="136" cy="64" r="1.6" fill="#1a1a20"/><circle cx="8" cy="72" r="1.6" fill="#15151a"/><circle cx="16" cy="72" r="1.6" fill="#1a1a20"/><circle cx="48" cy="72" r="1.6" fill="#1a1a20"/><circle cx="96" cy="72" r="1.6" fill="#1a1a20"/><circle cx="128" cy="72" r="1.6" fill="#1a1a20"/><circle cx="136" cy="72" r="1.6" fill="#15151a"/><circle cx="8" cy="80" r="1.6" fill="#1a1a20"/><circle cx="16" cy="80" r="1.6" fill="#15151a"/><circle cx="48" cy="80" r="1.6" fill="#15151a"/><circle cx="96" cy="80" r="1.6" fill="#15151a"/><circle cx="128" cy="80" r="1.6" fill="#15151a"/><circle cx="136" cy="80" r="1.6" fill="#1a1a20"/><circle cx="8" cy="88" r="1.6" fill="#15151a"/><circle cx="16" cy="88" r="1.6" fill="#1a1a20"/><circle cx="48" cy="88" r="1.6" fill="#1a1a20"/><circle cx="96" cy="88" r="1.6" fill="#1a1a20"/><circle cx="128" cy="88" r="1.6" fill="#1a1a20"/><circle cx="136" cy="88" r="1.6" fill="#15151a"/><circle cx="8" cy="96" r="1.6" fill="#1a1a20"/><circle cx="16" cy="96" r="1.6" fill="#15151a"/><circle cx="24" cy="96" r="1.6" fill="#1a1a20"/><circle cx="32" cy="96" r="1.6" fill="#15151a"/><circle cx="40" cy="96" r="1.6" fill="#1a1a20"/><circle cx="48" cy="96" r="1.6" fill="#15151a"/><circle cx="56" cy="96" r="1.6" fill="#1a1a20"/><circle cx="64" cy="96" r="1.6" fill="#15151a"/><circle cx="72" cy="96" r="1.6" fill="#1a1a20"/><circle cx="80" cy="96" r="1.6" fill="#15151a"/><circle cx="88" cy="96" r="1.6" fill="#1a1a20"/><circle cx="96" cy="96" r="1.6" fill="#15151a"/><circle cx="104" cy="96" r="1.6" fill="#1a1a20"/><circle cx="112" cy="96" r="1.6" fill="#15151a"/><circle cx="120" cy="96" r="1.6" fill="#1a1a20"/><circle cx="128" cy="96" r="1.6" fill="#15151a"/><circle cx="136" cy="96" r="1.6" fill="#1a1a20"/><circle cx="8" cy="104" r="1.6" fill="#15151a"/><circle cx="16" cy="104" r="1.6" fill="#1a1a20"/><circle cx="48" cy="104" r="1.6" fill="#1a1a20"/><circle cx="80" cy="104" r="1.6" fill="#1a1a20"/><circle cx="128" cy="104" r="1.6" fill="#1a1a20"/><circle cx="136" cy="104" r="1.6" fill="#15151a"/><circle cx="8" cy="112" r="1.6" fill="#1a1a20"/><circle cx="16" cy="112" r="1.6" fill="#15151a"/><circle cx="48" cy="112" r="1.6" fill="#15151a"/><circle cx="80" cy="112" r="1.6" fill="#15151a"/><circle cx="128" cy="112" r="1.6" fill="#15151a"/><circle cx="136" cy="112" r="1.6" fill="#1a1a20"/><circle cx="8" cy="120" r="1.6" fill="#15151a"/><circle cx="16" cy="120" r="1.6" fill="#1a1a20"/><circle cx="48" cy="120" r="1.6" fill="#1a1a20"/><circle cx="80" cy="120" r="1.6" fill="#1a1a20"/><circle cx="128" cy="120" r="1.6" fill="#1a1a20"/><circle cx="136" cy="120" r="1.6" fill="#15151a"/><circle cx="8" cy="128" r="1.6" fill="#1a1a20"/><circle cx="16" cy="128" r="1.6" fill="#15151a"/><circle cx="24" cy="128" r="1.6" fill="#1a1a20"/><circle cx="32" cy="128" r="1.6" fill="#15151a"/><circle cx="40" cy="128" r="1.6" fill="#1a1a20"/><circle cx="48" cy="128" r="1.6" fill="#15151a"/><circle cx="56" cy="128" r="1.6" fill="#1a1a20"/><circle cx="64" cy="128" r="1.6" fill="#15151a"/><circle cx="72" cy="128" r="1.6" fill="#1a1a20"/><circle cx="80" cy="128" r="1.6" fill="#15151a"/><circle cx="88" cy="128" r="1.6" fill="#1a1a20"/><circle cx="96" cy="128" r="1.6" fill="#15151a"/><circle cx="104" cy="128" r="1.6" fill="#1a1a20"/><circle cx="112" cy="128" r="1.6" fill="#15151a"/><circle cx="120" cy="128" r="1.6" fill="#1a1a20"/><circle cx="128" cy="128" r="1.6" fill="#15151a"/><circle cx="136" cy="128" r="1.6" fill="#1a1a20"/><circle cx="8" cy="136" r="1.6" fill="#15151a"/><circle cx="16" cy="136" r="1.6" fill="#1a1a20"/><circle cx="24" cy="136" r="1.6" fill="#15151a"/><circle cx="32" cy="136" r="1.6" fill="#1a1a20"/><circle cx="40" cy="136" r="1.6" fill="#15151a"/><circle cx="48" cy="136" r="1.6" fill="#1a1a20"/><circle cx="56" cy="136" r="1.6" fill="#15151a"/><circle cx="64" cy="136" r="1.6" fill="#1a1a20"/><circle cx="72" cy="136" r="1.6" fill="#15151a"/><circle cx="80" cy="136" r="1.6" fill="#1a1a20"/><circle cx="88" cy="136" r="1.6" fill="#15151a"/><circle cx="96" cy="136" r="1.6" fill="#1a1a20"/><circle cx="104" cy="136" r="1.6" fill="#15151a"/><circle cx="112" cy="136" r="1.6" fill="#1a1a20"/><circle cx="120" cy="136" r="1.6" fill="#15151a"/><circle cx="128" cy="136" r="1.6" fill="#1a1a20"/><circle cx="136" cy="136" r="1.6" fill="#15151a"/></g>
  <g><circle cx="24" cy="24" r="4.800000000000001" fill="#E8E8EA" filter="url(#blur)" opacity="0.55"/><circle cx="32" cy="24" r="4.800000000000001" fill="#E8E8EA" filter="url(#blur)" opacity="0.55"/><circle cx="40" cy="24" r="4.800000000000001" fill="#E8E8EA" filter="url(#blur)" opacity="0.55"/><circle cx="48" cy="24" r="4.800000000000001" fill="#E8E8EA" filter="url(#blur)" opacity="0.55"/><circle cx="56" cy="24" r="4.800000000000001" fill="#E8E8EA" filter="url(#blur)" opacity="0.55"/><circle cx="72" cy="24" r="4.800000000000001" fill="#E8E8EA" filter="url(#blur)" opacity="0.55"/><circle cx="80" cy="24" r="4.800000000000001" fill="#E8E8EA" filter="url(#blur)" opacity="0.55"/><circle cx="88" cy="24" r="4.800000000000001" fill="#E8E8EA" filter="url(#blur)" opacity="0.55"/><circle cx="104" cy="24" r="4.800000000000001" fill="#E8E8EA" filter="url(#blur)" opacity="0.55"/><circle cx="112" cy="24" r="4.800000000000001" fill="#E8E8EA" filter="url(#blur)" opacity="0.55"/><circle cx="120" cy="24" r="4.800000000000001" fill="#E8E8EA" filter="url(#blur)" opacity="0.55"/><circle cx="24" cy="32" r="4.800000000000001" fill="#E8E8EA" filter="url(#blur)" opacity="0.55"/><circle cx="32" cy="32" r="4.800000000000001" fill="#E8E8EA" filter="url(#blur)" opacity="0.55"/><circle cx="40" cy="32" r="4.800000000000001" fill="#E8E8EA" filter="url(#blur)" opacity="0.55"/><circle cx="48" cy="32" r="4.800000000000001" fill="#E8E8EA" filter="url(#blur)" opacity="0.55"/><circle cx="56" cy="32" r="4.800000000000001" fill="#E8E8EA" filter="url(#blur)" opacity="0.55"/><circle cx="72" cy="32" r="4.800000000000001" fill="#E8E8EA" filter="url(#blur)" opacity="0.55"/><circle cx="80" cy="32" r="4.800000000000001" fill="#E8E8EA" filter="url(#blur)" opacity="0.55"/><circle cx="88" cy="32" r="4.800000000000001" fill="#E8E8EA" filter="url(#blur)" opacity="0.55"/><circle cx="104" cy="32" r="4.800000000000001" fill="#E8E8EA" filter="url(#blur)" opacity="0.55"/><circle cx="112" cy="32" r="4.800000000000001" fill="#E8E8EA" filter="url(#blur)" opacity="0.55"/><circle cx="120" cy="32" r="4.800000000000001" fill="#E8E8EA" filter="url(#blur)" opacity="0.55"/><circle cx="24" cy="40" r="4.800000000000001" fill="#E8E8EA" filter="url(#blur)" opacity="0.55"/><circle cx="32" cy="40" r="4.800000000000001" fill="#E8E8EA" filter="url(#blur)" opacity="0.55"/><circle cx="40" cy="40" r="4.800000000000001" fill="#E8E8EA" filter="url(#blur)" opacity="0.55"/><circle cx="48" cy="40" r="4.800000000000001" fill="#E8E8EA" filter="url(#blur)" opacity="0.55"/><circle cx="56" cy="40" r="4.800000000000001" fill="#E8E8EA" filter="url(#blur)" opacity="0.55"/><circle cx="72" cy="40" r="4.800000000000001" fill="#E8E8EA" filter="url(#blur)" opacity="0.55"/><circle cx="80" cy="40" r="4.800000000000001" fill="#E8E8EA" filter="url(#blur)" opacity="0.55"/><circle cx="88" cy="40" r="4.800000000000001" fill="#E8E8EA" filter="url(#blur)" opacity="0.55"/><circle cx="104" cy="40" r="4.800000000000001" fill="#E8E8EA" filter="url(#blur)" opacity="0.55"/><circle cx="112" cy="40" r="4.800000000000001" fill="#E8E8EA" filter="url(#blur)" opacity="0.55"/><circle cx="120" cy="40" r="4.800000000000001" fill="#E8E8EA" filter="url(#blur)" opacity="0.55"/><circle cx="24" cy="56" r="4.800000000000001" fill="#E8E8EA" filter="url(#blur)" opacity="0.55"/><circle cx="32" cy="56" r="4.800000000000001" fill="#E8E8EA" filter="url(#blur)" opacity="0.55"/><circle cx="40" cy="56" r="4.800000000000001" fill="#E8E8EA" filter="url(#blur)" opacity="0.55"/><circle cx="56" cy="56" r="4.800000000000001" fill="#3DA9FC" filter="url(#blur)" opacity="0.55"/><circle cx="64" cy="56" r="4.800000000000001" fill="#3DA9FC" filter="url(#blur)" opacity="0.55"/><circle cx="72" cy="56" r="4.800000000000001" fill="#3DA9FC" filter="url(#blur)" opacity="0.55"/><circle cx="80" cy="56" r="4.800000000000001" fill="#3DA9FC" filter="url(#blur)" opacity="0.55"/><circle cx="88" cy="56" r="4.800000000000001" fill="#3DA9FC" filter="url(#blur)" opacity="0.55"/><circle cx="104" cy="56" r="4.800000000000001" fill="#E8E8EA" filter="url(#blur)" opacity="0.55"/><circle cx="112" cy="56" r="4.800000000000001" fill="#E8E8EA" filter="url(#blur)" opacity="0.55"/><circle cx="120" cy="56" r="4.800000000000001" fill="#E8E8EA" filter="url(#blur)" opacity="0.55"/><circle cx="24" cy="64" r="4.800000000000001" fill="#E8E8EA" filter="url(#blur)" opacity="0.55"/><circle cx="32" cy="64" r="4.800000000000001" fill="#E8E8EA" filter="url(#blur)" opacity="0.55"/><circle cx="40" cy="64" r="4.800000000000001" fill="#E8E8EA" filter="url(#blur)" opacity="0.55"/><circle cx="56" cy="64" r="4.800000000000001" fill="#3DA9FC" filter="url(#blur)" opacity="0.55"/><circle cx="64" cy="64" r="4.800000000000001" fill="#3DA9FC" filter="url(#blur)" opacity="0.55"/><circle cx="72" cy="64" r="4.800000000000001" fill="#3DA9FC" filter="url(#blur)" opacity="0.55"/><circle cx="80" cy="64" r="4.800000000000001" fill="#3DA9FC" filter="url(#blur)" opacity="0.55"/><circle cx="88" cy="64" r="4.800000000000001" fill="#3DA9FC" filter="url(#blur)" opacity="0.55"/><circle cx="104" cy="64" r="4.800000000000001" fill="#E8E8EA" filter="url(#blur)" opacity="0.55"/><circle cx="112" cy="64" r="4.800000000000001" fill="#E8E8EA" filter="url(#blur)" opacity="0.55"/><circle cx="120" cy="64" r="4.800000000000001" fill="#E8E8EA" filter="url(#blur)" opacity="0.55"/><circle cx="24" cy="72" r="4.800000000000001" fill="#E8E8EA" filter="url(#blur)" opacity="0.55"/><circle cx="32" cy="72" r="4.800000000000001" fill="#E8E8EA" filter="url(#blur)" opacity="0.55"/><circle cx="40" cy="72" r="4.800000000000001" fill="#E8E8EA" filter="url(#blur)" opacity="0.55"/><circle cx="56" cy="72" r="4.800000000000001" fill="#3DA9FC" filter="url(#blur)" opacity="0.55"/><circle cx="64" cy="72" r="4.800000000000001" fill="#3DA9FC" filter="url(#blur)" opacity="0.55"/><circle cx="72" cy="72" r="4.800000000000001" fill="#3DA9FC" filter="url(#blur)" opacity="0.55"/><circle cx="80" cy="72" r="4.800000000000001" fill="#3DA9FC" filter="url(#blur)" opacity="0.55"/><circle cx="88" cy="72" r="4.800000000000001" fill="#3DA9FC" filter="url(#blur)" opacity="0.55"/><circle cx="104" cy="72" r="4.800000000000001" fill="#E8E8EA" filter="url(#blur)" opacity="0.55"/><circle cx="112" cy="72" r="4.800000000000001" fill="#E8E8EA" filter="url(#blur)" opacity="0.55"/><circle cx="120" cy="72" r="4.800000000000001" fill="#E8E8EA" filter="url(#blur)" opacity="0.55"/><circle cx="24" cy="80" r="4.800000000000001" fill="#E8E8EA" filter="url(#blur)" opacity="0.55"/><circle cx="32" cy="80" r="4.800000000000001" fill="#E8E8EA" filter="url(#blur)" opacity="0.55"/><circle cx="40" cy="80" r="4.800000000000001" fill="#E8E8EA" filter="url(#blur)" opacity="0.55"/><circle cx="56" cy="80" r="4.800000000000001" fill="#3DA9FC" filter="url(#blur)" opacity="0.55"/><circle cx="64" cy="80" r="4.800000000000001" fill="#3DA9FC" filter="url(#blur)" opacity="0.55"/><circle cx="72" cy="80" r="4.800000000000001" fill="#3DA9FC" filter="url(#blur)" opacity="0.55"/><circle cx="80" cy="80" r="4.800000000000001" fill="#3DA9FC" filter="url(#blur)" opacity="0.55"/><circle cx="88" cy="80" r="4.800000000000001" fill="#3DA9FC" filter="url(#blur)" opacity="0.55"/><circle cx="104" cy="80" r="4.800000000000001" fill="#E8E8EA" filter="url(#blur)" opacity="0.55"/><circle cx="112" cy="80" r="4.800000000000001" fill="#E8E8EA" filter="url(#blur)" opacity="0.55"/><circle cx="120" cy="80" r="4.800000000000001" fill="#E8E8EA" filter="url(#blur)" opacity="0.55"/><circle cx="24" cy="88" r="4.800000000000001" fill="#E8E8EA" filter="url(#blur)" opacity="0.55"/><circle cx="32" cy="88" r="4.800000000000001" fill="#E8E8EA" filter="url(#blur)" opacity="0.55"/><circle cx="40" cy="88" r="4.800000000000001" fill="#E8E8EA" filter="url(#blur)" opacity="0.55"/><circle cx="56" cy="88" r="4.800000000000001" fill="#3DA9FC" filter="url(#blur)" opacity="0.55"/><circle cx="64" cy="88" r="4.800000000000001" fill="#3DA9FC" filter="url(#blur)" opacity="0.55"/><circle cx="72" cy="88" r="4.800000000000001" fill="#3DA9FC" filter="url(#blur)" opacity="0.55"/><circle cx="80" cy="88" r="4.800000000000001" fill="#3DA9FC" filter="url(#blur)" opacity="0.55"/><circle cx="88" cy="88" r="4.800000000000001" fill="#3DA9FC" filter="url(#blur)" opacity="0.55"/><circle cx="104" cy="88" r="4.800000000000001" fill="#E8E8EA" filter="url(#blur)" opacity="0.55"/><circle cx="112" cy="88" r="4.800000000000001" fill="#E8E8EA" filter="url(#blur)" opacity="0.55"/><circle cx="120" cy="88" r="4.800000000000001" fill="#E8E8EA" filter="url(#blur)" opacity="0.55"/><circle cx="24" cy="104" r="4.800000000000001" fill="#E8E8EA" filter="url(#blur)" opacity="0.55"/><circle cx="32" cy="104" r="4.800000000000001" fill="#E8E8EA" filter="url(#blur)" opacity="0.55"/><circle cx="40" cy="104" r="4.800000000000001" fill="#E8E8EA" filter="url(#blur)" opacity="0.55"/><circle cx="56" cy="104" r="4.800000000000001" fill="#E8E8EA" filter="url(#blur)" opacity="0.55"/><circle cx="64" cy="104" r="4.800000000000001" fill="#E8E8EA" filter="url(#blur)" opacity="0.55"/><circle cx="72" cy="104" r="4.800000000000001" fill="#E8E8EA" filter="url(#blur)" opacity="0.55"/><circle cx="88" cy="104" r="4.800000000000001" fill="#E8E8EA" filter="url(#blur)" opacity="0.55"/><circle cx="96" cy="104" r="4.800000000000001" fill="#E8E8EA" filter="url(#blur)" opacity="0.55"/><circle cx="104" cy="104" r="4.800000000000001" fill="#E8E8EA" filter="url(#blur)" opacity="0.55"/><circle cx="112" cy="104" r="4.800000000000001" fill="#E8E8EA" filter="url(#blur)" opacity="0.55"/><circle cx="120" cy="104" r="4.800000000000001" fill="#E8E8EA" filter="url(#blur)" opacity="0.55"/><circle cx="24" cy="112" r="4.800000000000001" fill="#E8E8EA" filter="url(#blur)" opacity="0.55"/><circle cx="32" cy="112" r="4.800000000000001" fill="#E8E8EA" filter="url(#blur)" opacity="0.55"/><circle cx="40" cy="112" r="4.800000000000001" fill="#E8E8EA" filter="url(#blur)" opacity="0.55"/><circle cx="56" cy="112" r="4.800000000000001" fill="#E8E8EA" filter="url(#blur)" opacity="0.55"/><circle cx="64" cy="112" r="4.800000000000001" fill="#E8E8EA" filter="url(#blur)" opacity="0.55"/><circle cx="72" cy="112" r="4.800000000000001" fill="#E8E8EA" filter="url(#blur)" opacity="0.55"/><circle cx="88" cy="112" r="4.800000000000001" fill="#E8E8EA" filter="url(#blur)" opacity="0.55"/><circle cx="96" cy="112" r="4.800000000000001" fill="#E8E8EA" filter="url(#blur)" opacity="0.55"/><circle cx="104" cy="112" r="4.800000000000001" fill="#E8E8EA" filter="url(#blur)" opacity="0.55"/><circle cx="112" cy="112" r="4.800000000000001" fill="#E8E8EA" filter="url(#blur)" opacity="0.55"/><circle cx="120" cy="112" r="4.800000000000001" fill="#E8E8EA" filter="url(#blur)" opacity="0.55"/><circle cx="24" cy="120" r="4.800000000000001" fill="#E8E8EA" filter="url(#blur)" opacity="0.55"/><circle cx="32" cy="120" r="4.800000000000001" fill="#E8E8EA" filter="url(#blur)" opacity="0.55"/><circle cx="40" cy="120" r="4.800000000000001" fill="#E8E8EA" filter="url(#blur)" opacity="0.55"/><circle cx="56" cy="120" r="4.800000000000001" fill="#E8E8EA" filter="url(#blur)" opacity="0.55"/><circle cx="64" cy="120" r="4.800000000000001" fill="#E8E8EA" filter="url(#blur)" opacity="0.55"/><circle cx="72" cy="120" r="4.800000000000001" fill="#E8E8EA" filter="url(#blur)" opacity="0.55"/><circle cx="88" cy="120" r="4.800000000000001" fill="#E8E8EA" filter="url(#blur)" opacity="0.55"/><circle cx="96" cy="120" r="4.800000000000001" fill="#E8E8EA" filter="url(#blur)" opacity="0.55"/><circle cx="104" cy="120" r="4.800000000000001" fill="#E8E8EA" filter="url(#blur)" opacity="0.55"/><circle cx="112" cy="120" r="4.800000000000001" fill="#E8E8EA" filter="url(#blur)" opacity="0.55"/><circle cx="120" cy="120" r="4.800000000000001" fill="#E8E8EA" filter="url(#blur)" opacity="0.55"/></g>
  <g><circle cx="24" cy="24" r="3.2" fill="#E8E8EA"/><circle cx="32" cy="24" r="3.2" fill="#E8E8EA"/><circle cx="40" cy="24" r="3.2" fill="#E8E8EA"/><circle cx="48" cy="24" r="3.2" fill="#E8E8EA"/><circle cx="56" cy="24" r="3.2" fill="#E8E8EA"/><circle cx="72" cy="24" r="3.2" fill="#E8E8EA"/><circle cx="80" cy="24" r="3.2" fill="#E8E8EA"/><circle cx="88" cy="24" r="3.2" fill="#E8E8EA"/><circle cx="104" cy="24" r="3.2" fill="#E8E8EA"/><circle cx="112" cy="24" r="3.2" fill="#E8E8EA"/><circle cx="120" cy="24" r="3.2" fill="#E8E8EA"/><circle cx="24" cy="32" r="3.2" fill="#E8E8EA"/><circle cx="32" cy="32" r="3.2" fill="#E8E8EA"/><circle cx="40" cy="32" r="3.2" fill="#E8E8EA"/><circle cx="48" cy="32" r="3.2" fill="#E8E8EA"/><circle cx="56" cy="32" r="3.2" fill="#E8E8EA"/><circle cx="72" cy="32" r="3.2" fill="#E8E8EA"/><circle cx="80" cy="32" r="3.2" fill="#E8E8EA"/><circle cx="88" cy="32" r="3.2" fill="#E8E8EA"/><circle cx="104" cy="32" r="3.2" fill="#E8E8EA"/><circle cx="112" cy="32" r="3.2" fill="#E8E8EA"/><circle cx="120" cy="32" r="3.2" fill="#E8E8EA"/><circle cx="24" cy="40" r="3.2" fill="#E8E8EA"/><circle cx="32" cy="40" r="3.2" fill="#E8E8EA"/><circle cx="40" cy="40" r="3.2" fill="#E8E8EA"/><circle cx="48" cy="40" r="3.2" fill="#E8E8EA"/><circle cx="56" cy="40" r="3.2" fill="#E8E8EA"/><circle cx="72" cy="40" r="3.2" fill="#E8E8EA"/><circle cx="80" cy="40" r="3.2" fill="#E8E8EA"/><circle cx="88" cy="40" r="3.2" fill="#E8E8EA"/><circle cx="104" cy="40" r="3.2" fill="#E8E8EA"/><circle cx="112" cy="40" r="3.2" fill="#E8E8EA"/><circle cx="120" cy="40" r="3.2" fill="#E8E8EA"/><circle cx="24" cy="56" r="3.2" fill="#E8E8EA"/><circle cx="32" cy="56" r="3.2" fill="#E8E8EA"/><circle cx="40" cy="56" r="3.2" fill="#E8E8EA"/><circle cx="56" cy="56" r="3.2" fill="#3DA9FC"/><circle cx="64" cy="56" r="3.2" fill="#3DA9FC"/><circle cx="72" cy="56" r="3.2" fill="#3DA9FC"/><circle cx="80" cy="56" r="3.2" fill="#3DA9FC"/><circle cx="88" cy="56" r="3.2" fill="#3DA9FC"/><circle cx="104" cy="56" r="3.2" fill="#E8E8EA"/><circle cx="112" cy="56" r="3.2" fill="#E8E8EA"/><circle cx="120" cy="56" r="3.2" fill="#E8E8EA"/><circle cx="24" cy="64" r="3.2" fill="#E8E8EA"/><circle cx="32" cy="64" r="3.2" fill="#E8E8EA"/><circle cx="40" cy="64" r="3.2" fill="#E8E8EA"/><circle cx="56" cy="64" r="3.2" fill="#3DA9FC"/><circle cx="64" cy="64" r="3.2" fill="#3DA9FC"/><circle cx="72" cy="64" r="3.2" fill="#3DA9FC"/><circle cx="80" cy="64" r="3.2" fill="#3DA9FC"/><circle cx="88" cy="64" r="3.2" fill="#3DA9FC"/><circle cx="104" cy="64" r="3.2" fill="#E8E8EA"/><circle cx="112" cy="64" r="3.2" fill="#E8E8EA"/><circle cx="120" cy="64" r="3.2" fill="#E8E8EA"/><circle cx="24" cy="72" r="3.2" fill="#E8E8EA"/><circle cx="32" cy="72" r="3.2" fill="#E8E8EA"/><circle cx="40" cy="72" r="3.2" fill="#E8E8EA"/><circle cx="56" cy="72" r="3.2" fill="#3DA9FC"/><circle cx="64" cy="72" r="3.2" fill="#3DA9FC"/><circle cx="72" cy="72" r="3.2" fill="#3DA9FC"/><circle cx="80" cy="72" r="3.2" fill="#3DA9FC"/><circle cx="88" cy="72" r="3.2" fill="#3DA9FC"/><circle cx="104" cy="72" r="3.2" fill="#E8E8EA"/><circle cx="112" cy="72" r="3.2" fill="#E8E8EA"/><circle cx="120" cy="72" r="3.2" fill="#E8E8EA"/><circle cx="24" cy="80" r="3.2" fill="#E8E8EA"/><circle cx="32" cy="80" r="3.2" fill="#E8E8EA"/><circle cx="40" cy="80" r="3.2" fill="#E8E8EA"/><circle cx="56" cy="80" r="3.2" fill="#3DA9FC"/><circle cx="64" cy="80" r="3.2" fill="#3DA9FC"/><circle cx="72" cy="80" r="3.2" fill="#3DA9FC"/><circle cx="80" cy="80" r="3.2" fill="#3DA9FC"/><circle cx="88" cy="80" r="3.2" fill="#3DA9FC"/><circle cx="104" cy="80" r="3.2" fill="#E8E8EA"/><circle cx="112" cy="80" r="3.2" fill="#E8E8EA"/><circle cx="120" cy="80" r="3.2" fill="#E8E8EA"/><circle cx="24" cy="88" r="3.2" fill="#E8E8EA"/><circle cx="32" cy="88" r="3.2" fill="#E8E8EA"/><circle cx="40" cy="88" r="3.2" fill="#E8E8EA"/><circle cx="56" cy="88" r="3.2" fill="#3DA9FC"/><circle cx="64" cy="88" r="3.2" fill="#3DA9FC"/><circle cx="72" cy="88" r="3.2" fill="#3DA9FC"/><circle cx="80" cy="88" r="3.2" fill="#3DA9FC"/><circle cx="88" cy="88" r="3.2" fill="#3DA9FC"/><circle cx="104" cy="88" r="3.2" fill="#E8E8EA"/><circle cx="112" cy="88" r="3.2" fill="#E8E8EA"/><circle cx="120" cy="88" r="3.2" fill="#E8E8EA"/><circle cx="24" cy="104" r="3.2" fill="#E8E8EA"/><circle cx="32" cy="104" r="3.2" fill="#E8E8EA"/><circle cx="40" cy="104" r="3.2" fill="#E8E8EA"/><circle cx="56" cy="104" r="3.2" fill="#E8E8EA"/><circle cx="64" cy="104" r="3.2" fill="#E8E8EA"/><circle cx="72" cy="104" r="3.2" fill="#E8E8EA"/><circle cx="88" cy="104" r="3.2" fill="#E8E8EA"/><circle cx="96" cy="104" r="3.2" fill="#E8E8EA"/><circle cx="104" cy="104" r="3.2" fill="#E8E8EA"/><circle cx="112" cy="104" r="3.2" fill="#E8E8EA"/><circle cx="120" cy="104" r="3.2" fill="#E8E8EA"/><circle cx="24" cy="112" r="3.2" fill="#E8E8EA"/><circle cx="32" cy="112" r="3.2" fill="#E8E8EA"/><circle cx="40" cy="112" r="3.2" fill="#E8E8EA"/><circle cx="56" cy="112" r="3.2" fill="#E8E8EA"/><circle cx="64" cy="112" r="3.2" fill="#E8E8EA"/><circle cx="72" cy="112" r="3.2" fill="#E8E8EA"/><circle cx="88" cy="112" r="3.2" fill="#E8E8EA"/><circle cx="96" cy="112" r="3.2" fill="#E8E8EA"/><circle cx="104" cy="112" r="3.2" fill="#E8E8EA"/><circle cx="112" cy="112" r="3.2" fill="#E8E8EA"/><circle cx="120" cy="112" r="3.2" fill="#E8E8EA"/><circle cx="24" cy="120" r="3.2" fill="#E8E8EA"/><circle cx="32" cy="120" r="3.2" fill="#E8E8EA"/><circle cx="40" cy="120" r="3.2" fill="#E8E8EA"/><circle cx="56" cy="120" r="3.2" fill="#E8E8EA"/><circle cx="64" cy="120" r="3.2" fill="#E8E8EA"/><circle cx="72" cy="120" r="3.2" fill="#E8E8EA"/><circle cx="88" cy="120" r="3.2" fill="#E8E8EA"/><circle cx="96" cy="120" r="3.2" fill="#E8E8EA"/><circle cx="104" cy="120" r="3.2" fill="#E8E8EA"/><circle cx="112" cy="120" r="3.2" fill="#E8E8EA"/><circle cx="120" cy="120" r="3.2" fill="#E8E8EA"/></g>
</svg>